<svg xmlns="http://www.w3.org/2000/svg" viewBox="0 0 160.91 22.51"><defs><style>.cls-1{fill:#fff;}.cls-2{fill:none;stroke:#ee2a7b;stroke-linecap:round;stroke-linejoin:round;stroke-width:2px;}</style></defs><g id="Layer_2" data-name="Layer 2"><g id="Layer_1-2" data-name="Layer 1"><path class="cls-1" d="M122.46,18V4.51a47.53,47.53,0,0,1,6.52.38c2.86.55,3.35,4,1,5.92,2.34,1.23,3,2.58,2.23,4.69a3.52,3.52,0,0,1-3,2.46C127,18.15,124.8,18,122.46,18Zm2.42-6V16.1a33.31,33.31,0,0,0,3.76-.26c1.07-.19,1.47-.93,1.4-2a1.6,1.6,0,0,0-1.6-1.74C127.3,12,126.16,12.05,124.88,12.05Zm.05-2.18c.28,0,.45,0,.61,0,.65,0,1.29,0,1.93,0,1.05,0,1.61-.5,1.69-1.37a1.65,1.65,0,0,0-1.49-1.85c-.89-.09-1.79,0-2.74,0Z"/><path class="cls-1" d="M153.52,18.25c-.87-.16-2,.56-2.62-.83a4.8,4.8,0,0,1-4.6.75,2.37,2.37,0,0,1-.91-4.06,10.09,10.09,0,0,1,2.89-1.35c.56-.21,1.21-.16,1.79-.33a4,4,0,0,0,1-.61c-.33-.36-.62-1-1-1-1-.12-2.11-.27-3,.76-.29.34-1.21.14-1.85.19.17-.66.13-1.61.55-1.91a5.88,5.88,0,0,1,6.34-.33c.53.34.8,1.1,1.16,1.69.07.1,0,.26,0,.4C153.36,13.76,153.44,16,153.52,18.25Zm-2.62-4.48a24.38,24.38,0,0,0-3,.7,1.49,1.49,0,0,0-.74,1.12c0,.3.51.78.87.89C149.81,17,151.19,15.75,150.9,13.77Z"/><path class="cls-1" d="M143,14.12h-6.56c.07.93.29,1.62,1.22,1.9,1.35.41,2.51.26,3.05-.63.81-1.33,1.35-.13,1.94.15.91.45.21,1-.08,1.38-1,1.26-2.42,1.41-3.86,1.44a4,4,0,0,1-4.21-2.57,5.64,5.64,0,0,1,.81-5.68c1.14-1.53,3.86-1.82,5.9-.75A4.55,4.55,0,0,1,143,14.12Zm-2.2-1.61c-.4-1.35-1.35-2.08-2.38-1.93-1.23.19-1.85.84-1.84,1.93Z"/><path class="cls-1" d="M158.58,8.9l1.76.16v1.83h-1.65c0,1.55-.06,3,.05,4.47,0,.3.62.63,1,.79a3.37,3.37,0,0,0,1.16,0v2.06a21.77,21.77,0,0,1-3.24-.21c-1.1-.23-1.35-1.23-1.37-2.23,0-1.56,0-3.12,0-4.76l-1.56-.14V9.08l1.57-.18V5.82c.14-.12.18-.18.24-.19,2-.37,2-.37,2,1.65Z"/><path class="cls-1" d="M120.08,13.86h-6.63a1.65,1.65,0,0,0,1.35,2,3.32,3.32,0,0,0,3.76-1.37c.45.38,1.22.73,1.25,1.15a2,2,0,0,1-.92,1.46,5,5,0,0,1-6.93-.75c-1.55-1.89-1-5.5,1-7.14a4.74,4.74,0,0,1,6.29,1A5.23,5.23,0,0,1,120.08,13.86Zm-6.7-1.7h4.41a2.16,2.16,0,0,0-2.25-1.87A2.1,2.1,0,0,0,113.38,12.16Z"/><path class="cls-1" d="M91.72,15.56h6.44v2.23H89.55V4.39h2.17Z"/><path class="cls-1" d="M110.26,6.37c-2.07-.52-2.48-.1-2.2,2.32l2,.1v1.67l-2.12.12v7.14h-2.5V10.65L104,10.47V8.81l1.4-.15c0-.48,0-.94,0-1.4a3.46,3.46,0,0,1,4.07-3.1C111.08,4.65,111.15,4.83,110.26,6.37Z"/><path class="cls-1" d="M100.06,8.79h2.43V11.3c0,1.83,0,3.66,0,5.48,0,.85-.24,1.17-1.08,1.07a12,12,0,0,0-1.35,0Z"/><path class="cls-1" d="M100.11,5.3h2.34V7.67h-2.34Z"/><polyline class="cls-2" points="78.91 15.87 47.88 15.87 44.75 20.95 38.98 1 33.41 21.51 29.05 10.18 26.46 15.87 1 15.87"/></g></g></svg>